<?xml version="1.0" encoding="utf-8"?>
<!-- Generator: Adobe Illustrator 24.3.0, SVG Export Plug-In . SVG Version: 6.00 Build 0)  -->
<svg version="1.1" id="Layer_1" xmlns="http://www.w3.org/2000/svg" xmlns:xlink="http://www.w3.org/1999/xlink" x="0px" y="0px"
	 width="1632.6px" height="1632.6px" viewBox="0 0 1632.6 1632.6" style="enable-background:new 0 0 1632.6 1632.6;"
	 xml:space="preserve">
<style type="text/css">
	.st0{fill:#101143;}
	.st1{fill:url(#XMLID_675_);}
	.st2{fill:#4189C9;}
	.st3{fill:#212A5E;}
	.st4{fill:#FFFFFF;}
	.st5{fill:#121729;}
	.st6{fill:#241F21;}
	.st7{fill:url(#XMLID_676_);}
	.st8{fill:url(#XMLID_677_);}
	.st9{fill:url(#XMLID_678_);}
	.st10{fill:#333333;}
	.st11{fill:#BCBEC0;}
	.st12{fill:#150E19;}
	.st13{fill:#050606;}
	.st14{fill:#D1D3D4;}
	.st15{fill:#EEB71D;}
	.st16{fill:url(#XMLID_679_);}
	.st17{fill:url(#XMLID_680_);}
	.st18{fill:url(#XMLID_681_);}
	.st19{fill:#F3B61B;}
	.st20{fill:#F8A71B;}
	.st21{fill:#203C6D;}
	.st22{fill:#3EB54A;}
	.st23{fill:#FDCD09;}
	.st24{fill:#73BF44;}
	.st25{fill:#F3B41B;}
</style>
<path id="XMLID_1531_" d="M816.3,0C365.5,0,0,365.5,0,816.3s365.5,816.3,816.3,816.3s816.3-365.5,816.3-816.3S1267.1,0,816.3,0z
	 M584.9,1376h-10.8v-116.6c8.9-2.4,15.4-10.6,15.4-20.2c0-12.4-10.7-22.3-23.4-20.9c-9.5,1.1-17.3,8.7-18.4,18.2
	c-1.3,10.8,5.6,20.2,15.3,22.8V1376h-10.8c0,0-15.5-75.8-53.7-133.2c25.4-29,29.3-57,29.6-58.1c0,0,0,0,0,0h40.5H609c0,0,0,0,0,0
	c0.3,1.2,4.2,29.1,29.6,58.1C600.4,1300.2,584.9,1376,584.9,1376z M510,1171.5v-33.6h117v33.6H510z M907.3,379.6
	c22.4-9,43.6-13.5,62.9-15.3c-7.6,4.7-15.1,9.7-22.4,14.9C871.9,433.6,826.3,509,797.1,593c-14,40.4-43.9,73.4-83,90.8
	c-0.3,0.1-0.6,0.3-0.9,0.4c0,0,31.6-6.8,64.5-25.2c-0.1,0.2-0.1,0.4-0.2,0.7c-14.9,60.5-57.6,110.5-115.5,133.4
	c-6.6,2.6-13.5,5.1-20.7,7.3c0,0,60.8-6.3,116.1-37.1l-0.1,0.4c-4,26.5-21.8,48.8-46.6,58.8c-5.2,2.1-10.7,4.1-16.4,5.9
	c0,0,25.7-2.7,56-13.8c-0.3,2.5-0.6,5-0.9,7.5c-9.1,73.2-58.2,135.7-127.6,160.8c-1.3,0.5-2.7,1-4.1,1.4c0,0,57.8-6,112-34.9
	c-9.5,25.6-23.4,47.6-38.8,66.3c0,0-0.1,0.1-0.1,0.2c0,0,0,0.1-0.1,0.1c-0.1,0.1-0.1,0.2-0.2,0.2c-0.2,0.2-0.5,0.6-0.8,0.9
	c-7.8,9.2-52.8,59.5-106,76.3c-1.2-7.4-1.9-12.3-2-13.5c-1.9-17.9-3.1-33.4-3.8-44.4c-0.7-11-0.9-17.6-0.9-17.6
	c-2-38.2-2.3-79.3,0.4-120.3C590.3,702.9,720.6,407.8,947,324c0,0-106.8,25.9-187.9,123.2c-66.1,79.2-225.2,296.8-198,655.7
	c-94.5-35.2-140.9-122.6-142.3-213.9c12.8,12.1,22.5,19,22.5,19c-0.1-0.1-0.2-0.2-0.3-0.3c-14.6-17.2-20.9-40-17.5-62.3
	c1-6.6,2.1-13.4,3.4-20.4c19.9,39.3,50.4,67,51.3,67.8c-0.3-0.4-0.6-0.9-0.9-1.3c-33.3-50.3-42.4-112.9-24.8-170.5
	c5.3-17.4,11.2-35.1,17.6-52.8c9.8,33.5,25,58,25,58c-1-4.2-1.8-8.3-2.5-12.6c-9-52.2-0.1-106,24.1-153.2
	c24.6-48,53.2-92.1,85.2-126.2c35.4-37.8,74.6-69.8,116.3-95.8c-18.4,45.1-16.7,93-16.7,93c1.8-7.7,3.8-14.9,5.8-21.8
	c16.6-56.3,59-101.5,114.2-121.5c0.2-0.1,0.5-0.2,0.7-0.3c-18.5,38.6-22.3,77.7-22.4,78.9c0.5-1.1,1-2.3,1.6-3.4
	c14.1-30.2,37.3-57.7,65.7-75.5c22.2-13.9,79.7-34.4,153.8-31.1c-11.8,7.5-18.5,15.3-18.5,15.3c4.4-2.1,9.2-3.9,14.2-5.4
	c41-12.8,162.5,8.7,197.3,52.9C1065.3,276.2,907.3,379.6,907.3,379.6z"/>
</svg>
