<svg xmlns="http://www.w3.org/2000/svg" viewBox="0 0 16 16" width="32" height="32">
  <rect width="16" height="16" rx="2" fill="#0f0f0f"/>
  <g fill="none" stroke="#ffffff" stroke-width="1.2" stroke-linecap="round" stroke-linejoin="round">
    <path d="M6 8V1.5h1v5.617L8.743 6.57a.5.5 0 0 1 .514 0L11 7.617V1.5h1v6.5a.5.5 0 0 1-.757.429L9 7.083 6.757 8.43A.5.5 0 0 1 6 8"/>
    <path d="M3 1.5h10a1.5 1.5 0 0 1 1.5 1.5v10a1.5 1.5 0 0 1-1.5 1.5H3a1.5 1.5 0 0 1-1.5-1.5V3a1.5 1.5 0 0 1 1.5-1.5"/>
  </g>
</svg>